<svg xmlns="http://www.w3.org/2000/svg" version="1.1" xmlns:xlink="http://www.w3.org/1999/xlink" xmlns:svgjs="http://svgjs.dev/svgjs" width="2000" height="1500" viewBox="0 0 2000 1500"><rect width="2000" height="1500" fill="#ffffff"></rect><g transform="matrix(0.75,0,0,0.75,249.09093992914939,548.2389117634046)"><svg viewBox="0 0 396 107" data-background-color="#ffffff" preserveAspectRatio="xMidYMid meet" height="540" width="2000" xmlns="http://www.w3.org/2000/svg" xmlns:xlink="http://www.w3.org/1999/xlink"><g id="tight-bounds" transform="matrix(1,0,0,1,0.23999189372921137,-0.1952164218399446)"><svg viewBox="0 0 395.52 107.39041892225198" height="107.39041892225198" width="395.52"><g><svg viewBox="0 0 672.9033721037144 182.70473054311768" height="107.39041892225198" width="395.52"><g transform="matrix(1,0,0,1,277.38337210371446,21.56125540923796)"><svg viewBox="0 0 395.5199999999999 139.58221972464176" height="139.58221972464176" width="395.5199999999999"><g><svg viewBox="0 0 395.5199999999999 139.58221972464176" height="139.58221972464176" width="395.5199999999999"><g><svg viewBox="0 0 395.5199999999999 139.58221972464176" height="139.58221972464176" width="395.5199999999999"><g transform="matrix(1,0,0,1,0,0)"><svg width="395.5199999999999" viewBox="5.050000190734863 -31.399999618530273 88.9699935913086 31.399999618530273" height="139.58221972464176" data-palette-color="#aaaaaa"><path d="M8.95 0L5.05 0 5.05-31.4 24.15-31.4 24.15-28.05 8.95-28.05 8.95-17.6 23.1-17.6 23.1-14.25 8.95-14.25 8.95 0ZM28.75 0L24.65 0 35.45-31.4 40.2-31.4 50.75 0 46.65 0 44-8.05 31.5-8.05 28.75 0ZM37.75-26.65L32.5-11.1 43-11.1 37.75-26.65ZM57.12 0L57.12-31.4 66.32-31.4Q71.07-31.4 74.57-29.46 78.07-27.53 80-24 81.92-20.48 81.92-15.7L81.92-15.7Q81.92-10.98 80-7.45 78.07-3.93 74.57-1.96 71.07 0 66.32 0L66.32 0 57.12 0ZM66.32-27.95L61.02-27.95 61.02-3.4 66.32-3.4Q69.87-3.4 72.43-5 75-6.6 76.38-9.39 77.77-12.18 77.77-15.7L77.77-15.7Q77.77-19.25 76.38-22.01 75-24.78 72.43-26.36 69.87-27.95 66.32-27.95L66.32-27.95ZM94.02 0L90.12 0 90.12-31.4 94.02-31.4 94.02 0Z" opacity="1" transform="matrix(1,0,0,1,0,0)" fill="#aaaaaa" class="undefined-text-0" data-fill-palette-color="primary" id="text-0"></path></svg></g></svg></g></svg></g></svg></g><g><svg viewBox="0 0 244.43135999999996 182.70473054311768" height="182.70473054311768" width="244.43135999999996"><g><svg xmlns="http://www.w3.org/2000/svg" xmlns:xlink="http://www.w3.org/1999/xlink" version="1.1" x="0" y="0" viewBox="1.100000023841858 13.400001525878906 97.80000305175781 73.1024169921875" enable-background="new 0 0 100 100" xml:space="preserve" height="182.70473054311768" width="244.43135999999996" class="icon-icon-0" data-fill-palette-color="accent" id="icon-0"><path d="M1.1 79.9v-4.1h5.4 0.3V33.2c0-3.4 2.7-6.1 6.1-6.1h23.7c-0.5 2-0.8 4.1-0.8 6.3 0 0.7 0 1.3 0.1 2H15v40.4h21.2v0.4c0 1.3 1 2.3 2.3 2.3h11.6c1.3 0 2.3-1 2.3-2.3v-0.4h21.2V58.5H79c1 0 2-0.1 3-0.2v17.4h0.3 5.4v4.1c0 3.7-3 6.7-6.7 6.7h-6.4H14.2 7.8C4.1 86.6 1.1 83.6 1.1 79.9zM40.8 33.4c0-11 9-20 20-20h18.1c11 0 20 9 20 20 0 11-9 20-20 20H65.4l-9.2 9.2c-0.6 0.6-1.7 0.2-1.7-0.7v-9.5C46.5 49.7 40.8 42.3 40.8 33.4zM52.7 33.5c0 1.1 0.2 2.1 0.6 3.1 0.4 1 1 1.9 1.8 2.7 0.8 0.8 1.7 1.4 2.7 1.8 1 0.4 2 0.6 3.1 0.6 1.1 0 2.1-0.2 3.1-0.6 1-0.4 1.9-1 2.7-1.8l0.6-0.6-2.6-2.6-0.6 0.6c-0.9 0.9-2 1.3-3.2 1.3-1.2 0-2.3-0.5-3.2-1.3-0.9-0.9-1.3-2-1.3-3.2s0.5-2.3 1.3-3.2c0.9-0.9 2-1.3 3.2-1.3 1.2 0 2.3 0.5 3.2 1.3l3.2 3.2 5.8 5.8c0.8 0.8 1.7 1.4 2.7 1.8 1 0.4 2 0.6 3.1 0.6 1.1 0 2.1-0.2 3.1-0.6 1-0.4 1.9-1 2.7-1.8 0.8-0.8 1.4-1.7 1.8-2.7 0.4-1 0.6-2 0.6-3.1 0-1.1-0.2-2.1-0.6-3.1-0.4-1-1-1.9-1.8-2.7-0.8-0.8-1.7-1.4-2.7-1.8-1-0.4-2-0.6-3.1-0.6-1.1 0-2.1 0.2-3.1 0.6-1 0.4-1.9 1-2.7 1.8l-0.7 0.7L75 31l0.7-0.7c0.9-0.9 2-1.3 3.2-1.3 1.2 0 2.3 0.5 3.2 1.3 0.9 0.9 1.3 2 1.3 3.2s-0.5 2.3-1.3 3.2c-0.9 0.9-2 1.3-3.2 1.3-1.2 0-2.3-0.5-3.2-1.3l-1.3-1.3-7.7-7.7c-0.8-0.8-1.7-1.4-2.7-1.8-1-0.4-2-0.6-3.1-0.6-1.1 0-2.1 0.2-3.1 0.6-1 0.4-1.9 1-2.7 1.8-0.8 0.8-1.4 1.7-1.8 2.7C52.9 31.4 52.7 32.4 52.7 33.5z" fill="#ffa900" data-fill-palette-color="accent"></path></svg></g></svg></g></svg></g><defs></defs></svg><rect width="395.52" height="107.39041892225198" fill="none" stroke="none" visibility="hidden"></rect></g></svg></g></svg>